# xmcd
#
# Track frame offsets:
#	150
#	33110
#	59000
#
# Disc length: 1018
#
# Revision: 1
# Processed by: cddbd v1.5.1PL0 Copyright (c) Steve Scherf et al.
# Submitted via: ExactAudioCopy v0.95a5
# Normalized: r0:TRMNUM
#
DISCID=2003f803
DTITLE=MARIE OOISHI - SLOW
DYEAR=2004
DGENRE=Jazz
TTITLE0=SLOW
TTITLE1=through the window
TTITLE2=the bumble BEE
EXTD=
EXTT0=
EXTT1=
EXTT2=
PLAYORDER=
